#N canvas -8 -8 1366 685 10;
#X obj 92 183 hradio 30 1 0 29 empty empty empty 0 -8 0 10 -4034 -1
-1 28;
#N canvas 0 0 1354 685 hidin 1;
#X obj 81 278 hidin;
#X msg 81 111 stop;
#X msg 81 228 show;
#X floatatom -33 421 3 0 0 0 - - -;
#X floatatom -7 421 3 0 0 0 - - -;
#X floatatom 19 421 3 0 0 0 - - -;
#X floatatom 45 421 3 0 0 0 - - -;
#X floatatom 71 421 3 0 0 0 - - -;
#X floatatom 97 421 3 0 0 0 - - -;
#X floatatom 123 421 3 0 0 0 - - -;
#X floatatom 149 421 3 0 0 0 - - -;
#X msg 81 251 print;
#X msg 81 184 open 2;
#X floatatom 175 421 3 0 0 0 - - -;
#X floatatom 201 421 3 0 0 0 - - -;
#X floatatom 227 421 3 0 0 0 - - -;
#X floatatom 253 421 3 0 0 0 - - -;
#X floatatom 279 421 3 0 0 0 - - -;
#X floatatom 305 421 3 0 0 0 - - -;
#X floatatom 331 421 3 0 0 0 - - -;
#X floatatom 357 421 3 0 0 0 - - -;
#N canvas 162 133 578 428 serin 0;
#X obj 209 61 cnv 15 15 15 empty \$0-open-canvas 2 4 8 0 14 -233017
-1 0;
#X obj 60 61 hradio 15 1 1 10 empty empty empty 0 -6 0 8 -225271 -1
-1 2;
#X obj 60 13 inlet;
#X msg 200 202 label \$1;
#X obj 200 180 makefilename %d;
#X obj 59 108 int;
#X obj 59 337 outlet;
#X msg 201 306 set \$1 \$2;
#X obj 59 266 trigger bang anything;
#X obj 201 286 list;
#X msg 60 210 open \$1;
#X obj 200 225 send \$0-open-canvas;
#X connect 1 0 5 0;
#X connect 2 0 1 0;
#X connect 3 0 11 0;
#X connect 4 0 3 0;
#X connect 5 0 4 0;
#X connect 5 0 10 0;
#X connect 7 0 6 0;
#X connect 8 0 6 0;
#X connect 8 1 9 0;
#X connect 9 0 7 0;
#X connect 10 0 8 0;
#X coords 0 -1 1 1 165 17 1 60 60;
#X restore 91 161 pd serin;
#X floatatom 383 421 3 0 0 0 - - -;
#X floatatom 409 421 3 0 0 0 - - -;
#X floatatom 435 421 3 0 0 0 - - -;
#X msg 81 133 interval 10;
#X msg 81 67 bang;
#X obj 108 305 print DEVICES;
#X msg 81 206 close;
#X msg 81 89 start;
#X text 125 252 comment;
#X text 118 227 comment;
#X text 158 133 comment;
#X text 117 66 comment;
#X obj 81 380 route 1 2 3 4 5 6 7 8 9 10 11 12 13 14 15 16 17 18 19
20 21;
#X floatatom 467 423 5 0 0 0 - - -;
#X floatatom 509 424 5 0 0 0 - - -;
#X floatatom 550 422 5 0 0 0 - - -;
#X obj 223 295 route 22 23;
#X floatatom 597 424 5 0 0 0 - - -;
#X floatatom 641 423 5 0 0 0 - - -;
#X obj 73 513 vsl 15 127 0 100 0 0 empty empty empty 0 -9 0 10 -262144
-1 -1 8190 1;
#X obj 223 513 vsl 15 128 0 17 0 0 empty empty empty 0 -9 0 10 -262144
-1 -1 12700 1;
#X obj 19 567 hsl 128 15 0 127 0 0 empty empty empty -2 -8 0 10 -262144
-1 -1 6450 1;
#X obj 169 567 hsl 128 15 0 127 0 0 empty empty empty -2 -8 0 10 -262144
-1 -1 6250 1;
#X floatatom 19 491 5 0 0 0 - - -;
#X obj 19 449 / 2;
#X floatatom 45 477 5 0 0 0 - - -;
#X obj 45 448 / 2;
#X floatatom -33 519 5 0 0 0 - - -;
#X obj -33 449 / 2;
#X floatatom -7 505 5 0 0 0 - - -;
#X obj -7 449 / 2;
#X obj 388 532 vsl 15 128 0 127 0 0 empty empty empty 0 -9 0 10 -262144
-1 -1 0 1;
#X obj 425 531 vsl 15 128 0 17 0 0 empty empty empty 0 -9 0 10 -262144
-1 -1 0 1;
#X obj 509 531 mtof;
#X floatatom 355 457 5 0 0 0 - - -;
#X obj 355 644 int;
#N canvas -8 -8 1366 685 scales 1;
#X msg -3736 -528 \; Cmajor 0 48 50 52 53 55 57 59 60 62 64 65 67 69
71 72 74 76 77 79 81 83 84 86 88 89 91 93 95 96;
#X msg -3302 -527 \; Cminor 0 48 50 51 53 55 56 58 60 62 63 65 67 68
70 72 74 75 77 79 80 82 84 86 87 89 91 92 94 96;
#X msg -3731 -687 \; Dmajor 0 50 52 54 55 57 59 61 62 64 66 67 69 71
73 74 76 78 79 81 83 85 86 88 90 91 93 95 97 98;
#X msg -3309 -694 \; Dminor 0 50 52 53 55 57 58 60 62 64 65 67 69 70
72 74 76 77 79 81 82 84 86 88 89 91 93 94 96 98;
#X msg -3313 -769 \; Ebminor 0 51 53 54 56 58 59 61 63 65 66 68 70
71 73 75 77 78 80 82 83 85 87 89 90 92 94 95 97 99;
#X msg -3730 -766 \; Ebmajor 0 51 53 55 56 58 60 62 63 65 67 68 70
72 74 75 77 79 80 82 84 86 87 89 91 92 94 96 98 99;
#X msg -3731 -609 \; Dbmajor 0 49 51 53 54 56 58 60 61 63 65 66 68
70 72 73 75 77 78 80 82 84 85 87 89 90 92 94 96 97;
#X msg -3307 -608 \; Dbminor 0 49 51 52 54 56 57 59 61 63 64 66 68
69 71 73 75 76 78 80 81 83 85 87 88 90 92 93 95 97;
#X msg -3734 -447 \; Bmajor 0 47 49 51 52 54 56 58 59 61 63 64 66 68
70 71 73 75 76 78 80 82 83 85 87 88 90 92 94 95 ;
#X msg -3303 -439 \; Bminor 0 47 49 50 52 54 55 57 59 61 62 64 66 67
69 71 73 74 76 78 79 81 83 85 86 88 90 91 93 95;
#X msg -3742 -375 \; Bmajor 0 46 48 50 51 53 55 57 58 60 62 63 65 67
69 70 72 74 75 77 69 81 82 84 86 87 89 91 93 94;
#X msg -3291 -353 \; Bminor 0 46 48 49 51 53 54 56 58 60 61 63 65 66
68 70 72 73 75 77 78 80 82 84 85 87 89 90 92 94;
#X msg -3751 -292 \; Amajor 0 45 47 49 50 52 54 56 57 59 61 62 64 66
68 69 71 73 74 76 68 80 81 83 85 86 88 90 92 93;
#X msg -3299 -273 \; Aminor 0 45 47 48 50 52 53 55 57 59 60 62 64 65
67 69 71 72 74 76 77 79 81 83 84 86 88 89 91 93;
#X msg -3724 -863 \; Emajor 0 52 54 56 57 59 61 63 64 66 68 69 71 73
75 76 78 80 81 83 85 87 88 90 92 93 95 97 99 100;
#X msg -3305 -863 \; Eminor 0 52 54 55 57 59 60 62 64 66 67 69 71 72
74 76 78 79 81 83 84 86 88 90 91 93 95 96 98 100;
#X obj -2876 -929 inlet;
#X obj -2876 -838 select 1 2 3 4 5 6 7 8 9 10 11 12 13 14 15 16 17
;
#X floatatom -2876 -898 5 0 0 0 - - -;
#X obj -2812 -793 bng 15 250 50 0 empty empty empty 17 7 0 10 -262144
-1 -1;
#X obj -2790 -793 bng 15 250 50 0 empty empty empty 17 7 0 10 -262144
-1 -1;
#X obj -2768 -793 bng 15 250 50 0 empty empty empty 17 7 0 10 -262144
-1 -1;
#X obj -2745 -793 bng 15 250 50 0 empty empty empty 17 7 0 10 -262144
-1 -1;
#X obj -2724 -793 bng 15 250 50 0 empty empty empty 17 7 0 10 -262144
-1 -1;
#X obj -2703 -793 bng 15 250 50 0 empty empty empty 17 7 0 10 -262144
-1 -1;
#X obj -2683 -793 bng 15 250 50 0 empty empty empty 17 7 0 10 -262144
-1 -1;
#X obj -2664 -794 bng 15 250 50 0 empty empty empty 17 7 0 10 -262144
-1 -1;
#X obj -2812 -769 bng 15 250 50 0 empty empty empty 17 7 0 10 -262144
-1 -1;
#X obj -2789 -769 bng 15 250 50 0 empty empty empty 17 7 0 10 -262144
-1 -1;
#X obj -2767 -769 bng 15 250 50 0 empty empty empty 17 7 0 10 -262144
-1 -1;
#X obj -2745 -769 bng 15 250 50 0 empty empty empty 17 7 0 10 -262144
-1 -1;
#X obj -2724 -770 bng 15 250 50 0 empty empty empty 17 7 0 10 -262144
-1 -1;
#X obj -2702 -771 bng 15 250 50 0 empty empty empty 17 7 0 10 -262144
-1 -1;
#X obj -2683 -771 bng 15 250 50 0 empty empty empty 17 7 0 10 -262144
-1 -1;
#X obj -2665 -772 bng 15 250 50 0 empty empty empty 17 7 0 10 -262144
-1 -1;
#X obj -2876 -867 int;
#X obj -2672 -514 tabread;
#X msg -2859 -648 set Emajor;
#X msg -2788 -648 set Ebmajor;
#X msg -2715 -648 set Dmajor;
#X msg -2641 -648 set Dbmajor;
#X msg -2859 -625 set Cmajor;
#X msg -2788 -624 set Bmajor;
#X msg -2715 -624 set Bbmajor;
#X msg -2641 -624 set Amajor;
#X msg -2859 -601 set Eminor;
#X msg -2788 -601 set Ebminor;
#X msg -2715 -601 set Dminor;
#X msg -2641 -601 set Dbminor;
#X msg -2859 -578 set Cminor;
#X msg -2788 -577 set Bminor;
#X msg -2715 -577 set Bbminor;
#X msg -2641 -577 set Aminor;
#X obj -3706 -886 table Emajor;
#X obj -3303 -884 table Eminor;
#X obj -3711 -789 table Ebmajor;
#X obj -3311 -790 table Ebminor;
#X obj -3307 -715 table Dminor;
#X obj -3712 -710 table Dmajor;
#X obj -3712 -632 table Dbmajor;
#X obj -3306 -632 table Dbminor;
#X obj -3300 -548 table Cminor;
#X obj -3717 -551 table Cmajor;
#X obj -3715 -470 table Bmajor;
#X obj -3739 -398 table Bbmajor;
#X obj -3748 -315 table Amajor;
#X obj -3298 -299 table Aminor;
#X obj -3290 -379 table Bbminor;
#X obj -3302 -465 table Bminor;
#X obj -2672 -475 outlet;
#X obj -2557 -532 float;
#X obj -2493 -533 + 1;
#X obj -2557 -571 r tempo;
#X obj -2633 -539 r counter;
#X obj -2772 -446 print;
#X connect 16 0 18 0;
#X connect 17 0 19 0;
#X connect 17 1 20 0;
#X connect 17 2 21 0;
#X connect 17 3 22 0;
#X connect 17 4 23 0;
#X connect 17 5 24 0;
#X connect 17 6 25 0;
#X connect 17 7 26 0;
#X connect 17 8 27 0;
#X connect 17 9 28 0;
#X connect 17 10 29 0;
#X connect 17 11 30 0;
#X connect 17 12 31 0;
#X connect 17 13 32 0;
#X connect 17 14 33 0;
#X connect 17 15 34 0;
#X connect 18 0 35 0;
#X connect 19 0 14 0;
#X connect 19 0 37 0;
#X connect 20 0 5 0;
#X connect 20 0 38 0;
#X connect 21 0 2 0;
#X connect 21 0 39 0;
#X connect 22 0 6 0;
#X connect 22 0 40 0;
#X connect 23 0 0 0;
#X connect 23 0 41 0;
#X connect 24 0 8 0;
#X connect 24 0 42 0;
#X connect 25 0 10 0;
#X connect 25 0 43 0;
#X connect 26 0 12 0;
#X connect 26 0 44 0;
#X connect 27 0 15 0;
#X connect 27 0 45 0;
#X connect 28 0 4 0;
#X connect 28 0 46 0;
#X connect 29 0 3 0;
#X connect 29 0 47 0;
#X connect 30 0 7 0;
#X connect 30 0 48 0;
#X connect 31 0 1 0;
#X connect 31 0 49 0;
#X connect 32 0 9 0;
#X connect 32 0 50 0;
#X connect 33 0 11 0;
#X connect 33 0 51 0;
#X connect 34 0 13 0;
#X connect 34 0 52 0;
#X connect 35 0 17 0;
#X connect 36 0 69 0;
#X connect 36 0 74 0;
#X connect 37 0 36 0;
#X connect 38 0 36 0;
#X connect 39 0 36 0;
#X connect 40 0 36 0;
#X connect 41 0 36 0;
#X connect 42 0 36 0;
#X connect 43 0 36 0;
#X connect 44 0 36 0;
#X connect 45 0 36 0;
#X connect 46 0 36 0;
#X connect 47 0 36 0;
#X connect 48 0 36 0;
#X connect 49 0 36 0;
#X connect 50 0 36 0;
#X connect 51 0 36 0;
#X connect 52 0 36 0;
#X connect 70 0 71 0;
#X connect 71 0 70 1;
#X connect 72 0 70 0;
#X connect 73 0 36 0;
#X restore 601 473 pd scales;
#N canvas 0 0 1354 685 FX 1;
#X obj 430 325 freeverb~;
#X msg 430 36 roomsize \$1;
#X msg 430 94 damping \$1;
#X msg 430 147 wet \$1;
#X msg 430 195 dry \$1;
#X msg 527 251 freeze \$1;
#X msg 527 291 bypass \$1;
#X obj 527 234 tgl 15 0 empty empty empty 17 7 0 10 -262144 -1 -1 0
1;
#X obj 527 274 tgl 15 0 empty empty empty 17 7 0 10 -262144 -1 -1 0
1;
#X obj 669 132 hsl 128 15 0 1 0 0 empty empty empty -2 -8 0 10 -4032
-1 -1 0 1;
#X floatatom 666 156 5 0 0 0 - - -;
#X obj 597 178 expr 1-$f1;
#X obj 667 21 hsl 128 15 0 100 0 0 empty empty empty -2 -8 0 10 -4034
-1 -1 0 1;
#X obj 669 79 hsl 128 15 0 1 0 0 empty empty empty -2 -8 0 10 -260097
-1 -1 0 1;
#X floatatom 666 99 5 0 0 0 - - -;
#X floatatom 664 47 5 0 0 0 - - -;
#X text 805 75 Damping level;
#X text 804 21 Roomize;
#X obj 431 442 outlet~;
#X obj 131 308 inlet~;
#X obj 210 361 *~ 0.6;
#X obj 191 382 delwrite~ delayone 1000;
#X obj 211 426 delread~ delayone 500;
#X obj 217 313 hsl 128 15 0 127 0 0 empty empty empty -2 -8 0 10 -262144
-1 -1 0 1;
#X text 258 312 Delay;
#X obj 214 484 hsl 128 15 0 127 0 0 empty empty empty -2 -8 0 10 -262144
-1 -1 0 1;
#X obj 206 336 / 100;
#X text 815 128 Wet/Dry;
#X obj 572 4 counter;
#X obj 572 -95 bng 15 250 50 0 empty empty empty 17 7 0 10 -262144
-1 -1;
#X msg 572 -35 set 0;
#X obj 570 -69 inlet;
#X obj 643 -20 inlet;
#X obj 643 -51 bng 15 250 50 0 empty empty empty 17 7 0 10 -262144
-1 -1;
#X obj 214 283 counter;
#X obj 214 255 bng 15 250 50 0 empty empty empty 17 7 0 10 -262144
-1 -1;
#X obj 214 226 inlet;
#X connect 0 0 18 0;
#X connect 1 0 0 0;
#X connect 2 0 0 0;
#X connect 3 0 0 0;
#X connect 4 0 0 0;
#X connect 5 0 0 0;
#X connect 6 0 0 0;
#X connect 7 0 5 0;
#X connect 8 0 6 0;
#X connect 9 0 10 0;
#X connect 9 0 3 0;
#X connect 9 0 11 0;
#X connect 11 0 4 0;
#X connect 12 0 1 0;
#X connect 12 0 15 0;
#X connect 13 0 2 0;
#X connect 13 0 14 0;
#X connect 19 0 21 0;
#X connect 19 0 0 0;
#X connect 20 0 21 0;
#X connect 22 0 20 0;
#X connect 22 0 18 0;
#X connect 23 0 26 0;
#X connect 25 0 22 0;
#X connect 26 0 20 1;
#X connect 28 0 12 0;
#X connect 29 0 28 0;
#X connect 30 0 28 0;
#X connect 30 0 34 0;
#X connect 31 0 29 0;
#X connect 32 0 33 0;
#X connect 33 0 30 0;
#X connect 34 0 23 0;
#X connect 35 0 34 0;
#X connect 36 0 35 0;
#X restore 510 605 pd FX;
#N canvas 156 69 1128 594 Counter 0;
#X obj 228 147 metro 300;
#X floatatom 279 110 5 0 0 0 - - -;
#X obj 228 219 counter;
#X floatatom 381 203 5 0 0 0 - - -;
#X floatatom 228 255 5 0 0 0 - - -;
#X msg 99 132 up;
#X msg 127 153 down;
#X msg 157 173 updown;
#X obj 228 109 bng 15 250 50 0 empty empty empty 17 7 0 10 -262144
-1 -1;
#X obj 575 214 sel 1 2;
#X floatatom 575 297 5 0 0 0 - - -;
#X msg 575 264 1;
#X msg 607 264 0;
#X obj 607 241 t b b;
#X msg 627 213 0;
#X obj 578 188 +;
#X floatatom 606 188 5 0 0 0 - - -;
#X obj 575 349 timer;
#X obj 578 136 bng 15 250 50 0 empty empty empty 0 -6 0 10 -4034 -1
-1;
#X msg 578 160 1;
#X obj 575 322 sel 1 0;
#X floatatom 575 373 5 0 0 0 - - -;
#X obj 758 231 bng 25 250 50 0 empty empty empty 0 -6 0 10 -262144
-1 -1;
#X msg 737 168 1;
#X obj 774 168 loadbang;
#X obj 737 195 metro 500;
#X text 600 134 <-- click twice to determine the tempo;
#X text 620 372 time passed between two clicks (in ms.);
#X text 790 234 Tempo;
#X msg 682 178 stop;
#X obj 553 48 inlet;
#X obj 553 80 route 0 1;
#X obj 553 110 bng 15 250 50 0 empty empty empty 17 7 0 10 -262144
-1 -1;
#X obj 578 111 bng 15 250 50 0 empty empty empty 17 7 0 10 -262144
-1 -1;
#X obj 575 400 outlet;
#X obj 99 97 inlet;
#X obj 127 120 inlet;
#X obj 157 140 inlet;
#X obj 415 50 route 0 1;
#X obj 415 78 bng 15 250 50 0 empty empty empty 17 7 0 10 -262144 -1
-1;
#X obj 440 78 bng 15 250 50 0 empty empty empty 17 7 0 10 -262144 -1
-1;
#X obj 440 110 counter;
#X floatatom 440 187 5 0 0 0 - - -;
#X obj 415 16 inlet;
#X msg 362 93 set 0;
#X obj 228 292 outlet;
#X obj 362 61 inlet;
#X obj 228 73 inlet;
#X obj 737 268 s tempo;
#X obj 321 236 s counter;
#X connect 0 0 2 0;
#X connect 1 0 0 1;
#X connect 2 0 4 0;
#X connect 2 0 49 0;
#X connect 3 0 2 4;
#X connect 4 0 45 0;
#X connect 5 0 2 0;
#X connect 6 0 2 0;
#X connect 7 0 2 0;
#X connect 8 0 0 0;
#X connect 9 0 11 0;
#X connect 9 1 13 0;
#X connect 10 0 20 0;
#X connect 11 0 10 0;
#X connect 12 0 10 0;
#X connect 13 0 12 0;
#X connect 13 1 14 0;
#X connect 14 0 16 0;
#X connect 15 0 16 0;
#X connect 16 0 15 1;
#X connect 16 0 9 0;
#X connect 17 0 21 0;
#X connect 18 0 19 0;
#X connect 19 0 15 0;
#X connect 20 0 17 0;
#X connect 20 1 17 1;
#X connect 21 0 25 1;
#X connect 21 0 1 0;
#X connect 21 0 34 0;
#X connect 23 0 25 0;
#X connect 24 0 23 0;
#X connect 25 0 22 0;
#X connect 25 0 48 0;
#X connect 29 0 25 0;
#X connect 30 0 31 0;
#X connect 31 0 32 0;
#X connect 31 1 33 0;
#X connect 33 0 18 0;
#X connect 35 0 5 0;
#X connect 36 0 6 0;
#X connect 37 0 7 0;
#X connect 38 0 39 0;
#X connect 38 1 40 0;
#X connect 40 0 41 0;
#X connect 41 0 42 0;
#X connect 42 0 3 0;
#X connect 43 0 38 0;
#X connect 44 0 41 0;
#X connect 44 0 42 0;
#X connect 46 0 44 0;
#X connect 47 0 8 0;
#X restore 353 259 pd Counter;
#N canvas 0 0 1366 685 Note 0;
#X obj 445 190 spigot;
#X obj 602 189 spigot;
#X obj 478 162 tgl 15 0 empty empty empty 17 7 0 10 -262144 -1 -1 0
1;
#X obj 608 143 tgl 15 0 empty empty empty 17 7 0 10 -262144 -1 -1 0
1;
#X obj 478 134 == 0;
#X obj 608 113 == 1;
#X obj 608 -4 hradio 15 1 0 2 empty empty empty 0 -8 0 10 -262144 -1
-1 0;
#X floatatom 608 59 5 0 0 0 - - -;
#X floatatom 338 324 5 0 360 0 - - fx1;
#X obj 468 250 float;
#X obj 564 11 bng 15 250 50 0 empty empty empty 17 7 0 10 -262144 -1
-1;
#X floatatom 468 289 5 0 0 0 - - -;
#X obj 445 454 expr if($f1 == $f2 \, 1 \, 0) \;;
#X obj 338 289 spigot;
#X obj 371 258 tgl 15 0 empty empty empty 17 7 0 10 -262144 -1 -1 0
1;
#X obj 445 419 spigot;
#X msg 490 367 0;
#X msg 452 366 1;
#X obj 478 396 tgl 15 0 empty empty empty 17 7 0 10 -262144 -1 -1 0
1;
#X obj 404 273 == 1;
#X msg 371 230 0;
#X obj 445 484 select 1;
#X floatatom 608 361 5 0 0 0 - - fx2;
#X obj 745 132 float;
#X floatatom 745 171 5 0 0 0 - - -;
#X obj 717 336 expr if($f1 == $f2 \, 1 \, 0) \;;
#X obj 608 311 spigot;
#X obj 641 280 tgl 15 0 empty empty empty 17 7 0 10 -262144 -1 -1 0
1;
#X obj 717 301 spigot;
#X msg 762 249 0;
#X msg 724 248 1;
#X obj 750 278 tgl 15 0 empty empty empty 17 7 0 10 -262144 -1 -1 0
1;
#X obj 657 311 == 1;
#X msg 641 252 0;
#X obj 717 366 select 1;
#X obj 429 52 int;
#X floatatom 429 -4 5 0 0 0 - - -;
#X floatatom 429 89 5 0 0 0 - - -;
#X obj 733 16 vradio 25 1 0 2 empty empty empty 0 -8 0 10 -262144 -1
-1 0;
#X obj 715 -72 knob 64 64 0 360 0 0 empty empty empty 0 -8 0 8 -262144
-1 -1 0 1;
#X text 774 43 FX 2;
#X floatatom 834 20 5 0 127 0 - fx1 -;
#X floatatom 834 45 5 0 127 0 - fx2 -;
#X text 382 287 Data passed to FX1;
#X text 576 383 Data passed to FX2;
#X floatatom 931 19 5 0 127 0 - s_fx1 -;
#X floatatom 931 48 5 0 127 0 - s_fx2 -;
#X obj 745 208 s s_fx2;
#X obj 503 315 s s_fx1;
#X text 905 -3 Stored Amount;
#X text 803 -2 Current Amount;
#X obj 542 -85 route 0 1;
#X obj 542 -53 bng 15 250 50 0 empty empty empty 17 7 0 10 -262144
-1 -1;
#X obj 567 -52 bng 15 250 50 0 empty empty empty 17 7 0 10 -262144
-1 -1;
#X obj 567 -19 tgl 15 0 empty empty empty 17 7 0 10 -262144 -1 -1 0
1;
#X obj 542 -120 inlet;
#X obj 873 227 outlet;
#X obj 715 -113 inlet;
#X obj 873 193 spigot;
#X obj 931 210 spigot;
#X obj 938 160 tgl 15 0 empty empty empty 17 7 0 10 -262144 -1 -1 0
1;
#X obj 889 120 -1;
#X obj 886 159 abs;
#X obj 964 116 -1;
#X obj 964 162 abs;
#X text 774 21 comment;
#X connect 0 0 9 1;
#X connect 0 0 13 0;
#X connect 0 0 15 0;
#X connect 1 0 26 0;
#X connect 1 0 28 0;
#X connect 1 0 23 1;
#X connect 2 0 0 1;
#X connect 3 0 1 1;
#X connect 4 0 2 0;
#X connect 5 0 3 0;
#X connect 6 0 7 0;
#X connect 6 0 10 0;
#X connect 6 0 17 0;
#X connect 6 0 30 0;
#X connect 6 0 60 0;
#X connect 7 0 4 0;
#X connect 7 0 5 0;
#X connect 9 0 11 0;
#X connect 10 0 9 0;
#X connect 10 0 20 0;
#X connect 10 0 33 0;
#X connect 10 0 23 0;
#X connect 11 0 12 1;
#X connect 11 0 48 0;
#X connect 12 0 21 0;
#X connect 13 0 8 0;
#X connect 14 0 13 1;
#X connect 14 0 19 0;
#X connect 15 0 12 0;
#X connect 16 0 18 0;
#X connect 17 0 18 0;
#X connect 18 0 15 1;
#X connect 19 0 16 0;
#X connect 20 0 14 0;
#X connect 21 0 14 0;
#X connect 23 0 24 0;
#X connect 24 0 25 1;
#X connect 24 0 47 0;
#X connect 25 0 34 0;
#X connect 26 0 22 0;
#X connect 27 0 26 1;
#X connect 27 0 32 0;
#X connect 28 0 25 0;
#X connect 29 0 31 0;
#X connect 30 0 31 0;
#X connect 31 0 28 1;
#X connect 32 0 29 0;
#X connect 33 0 27 0;
#X connect 34 0 27 0;
#X connect 35 0 1 0;
#X connect 35 0 37 0;
#X connect 36 0 35 0;
#X connect 37 0 0 0;
#X connect 38 0 6 0;
#X connect 39 0 36 0;
#X connect 45 0 61 0;
#X connect 46 0 59 0;
#X connect 51 0 52 0;
#X connect 51 1 53 0;
#X connect 53 0 54 0;
#X connect 54 0 6 0;
#X connect 55 0 51 0;
#X connect 57 0 39 0;
#X connect 58 0 56 0;
#X connect 59 0 56 0;
#X connect 60 0 58 1;
#X connect 60 0 63 0;
#X connect 61 0 62 0;
#X connect 62 0 58 0;
#X connect 63 0 64 0;
#X connect 64 0 59 1;
#X restore 509 473 pd Note CLutch;
#X floatatom 509 499 5 0 0 0 - - -;
#X obj 123 448 / 15;
#X text 93 352 comment;
#X obj 353 225 bng 15 250 50 0 empty empty empty 17 7 0 10 -262144
-1 -1;
#X obj 373 224 bng 15 250 50 0 empty empty empty 17 7 0 10 -262144
-1 -1;
#X obj 393 224 bng 15 250 50 0 empty empty empty 17 7 0 10 -262144
-1 -1;
#X obj 705 553 timer;
#X obj 781 458 loadbang;
#X obj 705 592 > 3000;
#X obj 750 536 metro 100;
#X obj 705 470 select 1;
#X obj 705 438 change;
#X msg 781 496 1;
#X floatatom 778 570 5 0 0 0 - - -;
#X msg 750 496 0;
#X obj 705 518 delay 1;
#X obj 705 621 tgl 15 0 empty empty empty 17 7 0 10 -262144 -1 -1 0
1;
#X obj 353 194 select 0 4 2 6;
#X obj 413 224 bng 15 250 50 0 empty empty empty 17 7 0 10 -262144
-1 -1;
#X obj 602 555 route 0 1;
#X obj 602 583 bng 15 250 50 0 empty empty empty 17 7 0 10 -262144
-1 -1;
#X obj 627 583 bng 15 250 50 0 empty empty empty 17 7 0 10 -262144
-1 -1;
#X obj 353 297 outlet;
#X obj 627 623 outlet;
#X obj 511 638 outlet~;
#X obj 601 529 makenote 80 500;
#X obj 601 494 * 5;
#X obj 509 565 phasor~;
#X connect 0 0 34 0;
#X connect 0 0 38 0;
#X connect 0 1 27 0;
#X connect 1 0 0 0;
#X connect 2 0 0 0;
#X connect 3 0 50 0;
#X connect 4 0 52 0;
#X connect 5 0 46 0;
#X connect 6 0 48 0;
#X connect 7 0 79 0;
#X connect 9 0 63 0;
#X connect 10 0 53 0;
#X connect 11 0 0 0;
#X connect 12 0 0 0;
#X connect 14 0 59 2;
#X connect 15 0 60 5;
#X connect 15 0 73 0;
#X connect 16 0 59 1;
#X connect 17 0 59 3;
#X connect 18 0 60 3;
#X connect 21 0 12 0;
#X connect 23 0 81 0;
#X connect 25 0 0 0;
#X connect 26 0 0 0;
#X connect 28 0 0 0;
#X connect 29 0 0 0;
#X connect 34 0 3 0;
#X connect 34 1 4 0;
#X connect 34 2 5 0;
#X connect 34 3 6 0;
#X connect 34 4 7 0;
#X connect 34 6 9 0;
#X connect 34 7 10 0;
#X connect 34 9 14 0;
#X connect 34 10 15 0;
#X connect 34 11 16 0;
#X connect 34 12 17 0;
#X connect 34 13 18 0;
#X connect 34 14 19 0;
#X connect 34 15 20 0;
#X connect 34 16 22 0;
#X connect 34 17 23 0;
#X connect 34 18 24 0;
#X connect 34 19 35 0;
#X connect 34 20 36 0;
#X connect 34 21 37 0;
#X connect 35 0 60 6;
#X connect 36 0 61 0;
#X connect 38 1 39 0;
#X connect 38 2 40 0;
#X connect 42 0 57 0;
#X connect 46 0 41 0;
#X connect 46 0 45 0;
#X connect 48 0 47 0;
#X connect 48 0 43 0;
#X connect 50 0 49 0;
#X connect 50 0 42 0;
#X connect 52 0 51 0;
#X connect 52 0 44 0;
#X connect 55 0 89 0;
#X connect 56 0 58 0;
#X connect 57 0 56 0;
#X connect 58 0 88 0;
#X connect 59 0 86 0;
#X connect 60 0 84 0;
#X connect 61 0 62 0;
#X connect 62 0 55 0;
#X connect 63 0 54 0;
#X connect 65 0 60 0;
#X connect 66 0 60 1;
#X connect 67 0 60 2;
#X connect 68 0 70 0;
#X connect 68 0 75 0;
#X connect 69 0 74 0;
#X connect 70 0 78 0;
#X connect 71 0 68 1;
#X connect 72 0 68 0;
#X connect 72 0 74 0;
#X connect 72 1 76 0;
#X connect 72 1 77 0;
#X connect 73 0 72 0;
#X connect 74 0 71 0;
#X connect 76 0 71 0;
#X connect 77 0 68 0;
#X connect 79 0 65 0;
#X connect 79 1 66 0;
#X connect 79 2 67 0;
#X connect 79 3 80 0;
#X connect 80 0 60 4;
#X connect 81 0 82 0;
#X connect 81 1 83 0;
#X connect 83 0 85 0;
#X connect 87 0 89 0;
#X connect 88 0 87 0;
#X connect 89 0 59 0;
#X restore 93 109 pd hidin;
#X obj 114 142 output~;
#X connect 1 0 0 0;
#X connect 1 1 2 0;
#X connect 1 2 2 1;
